# xmcd
#
# Track frame offsets:
#	150
#	23247
#	41820
#	54704
#	66662
#	85951
#	103727
#	115732
#	138173
#	156344
#	173114
#	190513
#	210146
#	229194
#	252234
#	270122
#	290791
#	308248
#	321876
#
# Disc length: 4514 seconds
#
# Revision: 0
# Processed by: cddbd v1.5.1PL0 Copyright (c) Steve Scherf et al.
# Submitted via: EasyCDDAExtractor 8.2.0.1
#
DISCID=0f11a013
DTITLE=Joe Cocker - Ultimate Collection
DYEAR=1900
DGENRE=Blues
TTITLE0=With a little help from my friends
TTITLE1=Feelin allright
TTITLE2=Every Little Thing You Do
TTITLE3=She came in through the bathroom window
TTITLE4=The letter
TTITLE5=Cry me a river
TTITLE6=You are so beautiful
TTITLE7=Im so glad im standing here today
TTITLE8=Sweet little woman
TTITLE9=Many rivers to cross
TTITLE10=Up where we belong
TTITLE11=Shelter me
TTITLE12=You can leave your hat on
TTITLE13=Unchain my heart
TTITLE14=When the night comes
TTITLE15=Now that the magic has gone
TTITLE16=Summer in the city
TTITLE17=Sail away
TTITLE18=First we take manhatten
EXTD=
EXTT0=
EXTT1=
EXTT2=
EXTT3=
EXTT4=
EXTT5=
EXTT6=
EXTT7=
EXTT8=
EXTT9=
EXTT10=
EXTT11=
EXTT12=
EXTT13=
EXTT14=
EXTT15=
EXTT16=
EXTT17=
EXTT18=
PLAYORDER=
